<svg width="143" height="140" viewBox="0 0 143 140" fill="none" xmlns="http://www.w3.org/2000/svg">
<path d="M71.5239 134.943C108.162 134.943 138.024 105.83 138.024 69.7216C138.024 33.6128 108.162 4.5 71.5239 4.5C34.8858 4.5 5.02393 33.6128 5.02393 69.7216C5.02393 105.83 34.8858 134.943 71.5239 134.943Z" fill="white" stroke="black" stroke-width="9"/>
<path d="M34.5311 85.106C34.943 83.9931 36.5171 83.9931 36.929 85.106L39.1514 91.1121C39.2809 91.462 39.5568 91.7379 39.9067 91.8674L45.9127 94.0898C47.0257 94.5016 47.0257 96.0758 45.9127 96.4876L39.9067 98.7101C39.5568 98.8395 39.2809 99.1154 39.1514 99.4653L36.929 105.471C36.5171 106.584 34.943 106.584 34.5312 105.471L32.3087 99.4653C32.1792 99.1154 31.9033 98.8395 31.5534 98.7101L25.5474 96.4876C24.4344 96.0758 24.4344 94.5016 25.5474 94.0898L31.5534 91.8674C31.9033 91.7379 32.1792 91.462 32.3087 91.1121L34.5311 85.106Z" fill="#428A56"/>
<path d="M46.3788 28.2294L75.2853 17.9484L27.2337 50.6418L46.3788 28.2294Z" fill="#894164"/>
<path d="M127.132 58.2165C127.132 60.5171 126.305 62.741 124.802 64.4823C123.298 66.2236 121.218 67.3663 118.942 67.7017C116.666 68.0371 114.346 67.5429 112.404 66.3093C110.462 65.0756 109.028 63.1849 108.365 60.9821C107.701 58.7792 107.852 56.4112 108.789 54.3102C109.726 52.2092 111.388 50.5153 113.47 49.5376C115.553 48.56 117.917 48.3637 120.133 48.9848C122.348 49.6058 124.266 51.0026 125.537 52.9204L117.545 58.2165H127.132Z" fill="#5D428A"/>
<path d="M67.1623 118.938C66.7362 117.66 67.2902 114.08 72.9149 109.99C78.5397 105.899 82.9287 108.285 84.4201 109.99C89.9596 103.385 97.9706 94.0103 85.6984 109.35C73.4263 124.691 95.073 108.498 107.43 98.4845L99.1211 124.691" stroke="#42798A" stroke-width="1.27835"/>
<path d="M21.1839 78C20.8773 78 20.6106 77.8867 20.3839 77.66C20.1573 77.4333 20.0439 77.1667 20.0439 76.86V64.54C20.0439 64.2333 20.1573 63.9667 20.3839 63.74C20.6106 63.5133 20.8773 63.4 21.1839 63.4H28.0439C28.3506 63.4 28.6173 63.5133 28.8439 63.74C29.0706 63.9667 29.1839 64.2333 29.1839 64.54V65C29.1839 65.3067 29.0706 65.5733 28.8439 65.8C28.6173 66.0267 28.3506 66.14 28.0439 66.14H23.6239C23.5039 66.14 23.4439 66.1933 23.4439 66.3V69.28C23.4439 69.4 23.5039 69.46 23.6239 69.46H27.6439C27.9506 69.46 28.2173 69.5733 28.4439 69.8C28.6706 70.0133 28.7839 70.2733 28.7839 70.58V70.9C28.7839 71.2067 28.6706 71.4733 28.4439 71.7C28.2173 71.9133 27.9506 72.02 27.6439 72.02H23.6239C23.5039 72.02 23.4439 72.08 23.4439 72.2V76.86C23.4439 77.1667 23.3306 77.4333 23.1039 77.66C22.8906 77.8867 22.6306 78 22.3239 78H21.1839ZM37.3483 70.4C37.0283 69.9067 36.535 69.66 35.8683 69.66C35.2016 69.66 34.7016 69.9067 34.3683 70.4C34.0483 70.8933 33.8883 71.6933 33.8883 72.8C33.8883 73.9067 34.0483 74.7067 34.3683 75.2C34.7016 75.6933 35.2016 75.94 35.8683 75.94C36.535 75.94 37.0283 75.6933 37.3483 75.2C37.6816 74.7067 37.8483 73.9067 37.8483 72.8C37.8483 71.6933 37.6816 70.8933 37.3483 70.4ZM39.7283 76.78C38.8083 77.7267 37.5216 78.2 35.8683 78.2C34.215 78.2 32.9283 77.7267 32.0083 76.78C31.0883 75.8333 30.6283 74.5067 30.6283 72.8C30.6283 71.0933 31.0883 69.7667 32.0083 68.82C32.9283 67.8733 34.215 67.4 35.8683 67.4C37.5216 67.4 38.8083 67.8733 39.7283 68.82C40.6483 69.7667 41.1083 71.0933 41.1083 72.8C41.1083 74.5067 40.6483 75.8333 39.7283 76.78ZM44.1671 78C43.8604 78 43.5937 77.8867 43.3671 77.66C43.1537 77.4333 43.0471 77.1667 43.0471 76.86V68.74C43.0471 68.4333 43.1537 68.1667 43.3671 67.94C43.5937 67.7133 43.8604 67.6 44.1671 67.6H45.1471C45.4537 67.6 45.7137 67.7133 45.9271 67.94C46.1537 68.1667 46.2671 68.4333 46.2671 68.74V69.58C46.2671 69.5933 46.2737 69.6 46.2871 69.6C46.3137 69.6 46.3271 69.5933 46.3271 69.58C47.1537 68.4733 48.3071 67.8267 49.7871 67.64C50.0937 67.6 50.3537 67.6933 50.5671 67.92C50.7937 68.1467 50.9071 68.42 50.9071 68.74V68.9C50.9071 69.2067 50.7937 69.4733 50.5671 69.7C50.3537 69.9267 50.0871 70.0533 49.7671 70.08C48.6871 70.2 47.8471 70.5733 47.2471 71.2C46.6604 71.8133 46.3671 72.6133 46.3671 73.6V76.86C46.3671 77.1667 46.2537 77.4333 46.0271 77.66C45.8137 77.8867 45.5537 78 45.2471 78H44.1671ZM53.7847 70.26C53.478 70.26 53.2114 70.1533 52.9847 69.94C52.758 69.7133 52.6447 69.4467 52.6447 69.14C52.6447 68.8333 52.758 68.5667 52.9847 68.34C53.2114 68.1133 53.478 68 53.7847 68H54.5847C54.6914 68 54.7447 67.94 54.7447 67.82V65.34C54.7447 65.0333 54.858 64.7667 55.0847 64.54C55.3114 64.3133 55.578 64.2 55.8847 64.2H56.8447C57.1514 64.2 57.418 64.3133 57.6447 64.54C57.8714 64.7667 57.9847 65.0333 57.9847 65.34V67.82C57.9847 67.94 58.0447 68 58.1647 68H60.1247C60.4314 68 60.6914 68.1133 60.9047 68.34C61.1314 68.5667 61.2447 68.8333 61.2447 69.14C61.2447 69.4467 61.1314 69.7133 60.9047 69.94C60.6914 70.1533 60.4314 70.26 60.1247 70.26H58.1647C58.0447 70.26 57.9847 70.32 57.9847 70.44V73.86C57.9847 74.7 58.058 75.2333 58.2047 75.46C58.3647 75.6867 58.7114 75.8 59.2447 75.8C59.5247 75.8 59.7447 75.7867 59.9047 75.76C60.198 75.72 60.458 75.7867 60.6847 75.96C60.9114 76.1333 61.0247 76.36 61.0247 76.64V76.8C61.0247 77.1333 60.918 77.4267 60.7047 77.68C60.4914 77.9333 60.218 78.08 59.8847 78.12C59.4714 78.1733 58.9914 78.2 58.4447 78.2C57.0847 78.2 56.1247 77.9133 55.5647 77.34C55.018 76.7533 54.7447 75.7067 54.7447 74.2V70.44C54.7447 70.32 54.6914 70.26 54.5847 70.26H53.7847ZM67.1269 78.2C65.9536 78.2 65.1002 77.8733 64.5669 77.22C64.0469 76.5667 63.7869 75.4467 63.7869 73.86V68.74C63.7869 68.4333 63.9002 68.1667 64.1269 67.94C64.3536 67.7133 64.6202 67.6 64.9269 67.6H65.8069C66.1136 67.6 66.3802 67.7133 66.6069 67.94C66.8336 68.1667 66.9469 68.4333 66.9469 68.74V73.64C66.9469 74.4133 67.0469 74.9467 67.2469 75.24C67.4602 75.52 67.8202 75.66 68.3269 75.66C68.7936 75.66 69.2202 75.4733 69.6069 75.1C69.9936 74.7133 70.1869 74.3 70.1869 73.86V68.74C70.1869 68.4333 70.3002 68.1667 70.5269 67.94C70.7536 67.7133 71.0202 67.6 71.3269 67.6H72.2869C72.5936 67.6 72.8602 67.7133 73.0869 67.94C73.3136 68.1667 73.4269 68.4333 73.4269 68.74V76.86C73.4269 77.1667 73.3136 77.4333 73.0869 77.66C72.8602 77.8867 72.5936 78 72.2869 78H71.4669C71.1469 78 70.8736 77.8933 70.6469 77.68C70.4336 77.4533 70.3202 77.18 70.3069 76.86V76.7C70.3069 76.6867 70.3002 76.68 70.2869 76.68L70.2469 76.72C69.3802 77.7067 68.3402 78.2 67.1269 78.2ZM77.1944 78C76.8877 78 76.6211 77.8867 76.3944 77.66C76.1811 77.4333 76.0744 77.1667 76.0744 76.86V68.74C76.0744 68.4333 76.1811 68.1667 76.3944 67.94C76.6211 67.7133 76.8877 67.6 77.1944 67.6H78.0144C78.3344 67.6 78.6011 67.7133 78.8144 67.94C79.0411 68.1533 79.1611 68.42 79.1744 68.74L79.1944 68.9C79.1944 68.9133 79.2011 68.92 79.2144 68.92L79.2544 68.88C80.1211 67.8933 81.1611 67.4 82.3744 67.4C83.5877 67.4 84.4611 67.7467 84.9944 68.44C85.5277 69.12 85.7944 70.2867 85.7944 71.94V76.86C85.7944 77.1667 85.6811 77.4333 85.4544 77.66C85.2411 77.8867 84.9811 78 84.6744 78H83.7944C83.4877 78 83.2211 77.8867 82.9944 77.66C82.7677 77.4333 82.6544 77.1667 82.6544 76.86V72.04C82.6544 71.24 82.5477 70.6933 82.3344 70.4C82.1211 70.0933 81.7344 69.94 81.1744 69.94C80.7077 69.94 80.2744 70.1333 79.8744 70.52C79.4877 70.8933 79.2944 71.3 79.2944 71.74V76.86C79.2944 77.1667 79.1811 77.4333 78.9544 77.66C78.7411 77.8867 78.4811 78 78.1744 78H77.1944ZM92.8 69.58C92.2 69.58 91.7467 69.74 91.44 70.06C91.1334 70.3667 90.94 70.9 90.86 71.66C90.86 71.7667 90.9067 71.82 91 71.82H94.38C94.5 71.82 94.56 71.76 94.56 71.64C94.5067 70.2667 93.92 69.58 92.8 69.58ZM93.3 78.2C91.4867 78.2 90.0867 77.74 89.1 76.82C88.1267 75.9 87.64 74.56 87.64 72.8C87.64 71.0533 88.0734 69.72 88.94 68.8C89.82 67.8667 91.0867 67.4 92.74 67.4C95.9134 67.4 97.5267 69.1333 97.58 72.6C97.58 72.92 97.4534 73.1933 97.2 73.42C96.96 73.6333 96.68 73.74 96.36 73.74H91.02C90.8867 73.74 90.8334 73.8 90.86 73.92C90.9667 74.6533 91.2467 75.18 91.7 75.5C92.1667 75.8067 92.86 75.96 93.78 75.96C94.38 75.96 95.0267 75.8733 95.72 75.7C96 75.6333 96.2467 75.6867 96.46 75.86C96.6867 76.0333 96.8 76.26 96.8 76.54V76.58C96.8 76.9133 96.6934 77.22 96.48 77.5C96.28 77.7667 96.02 77.9267 95.7 77.98C94.9267 78.1267 94.1267 78.2 93.3 78.2ZM116.649 72.7C116.649 76.3667 114.783 78.2 111.049 78.2C107.316 78.2 105.449 76.3667 105.449 72.7V64.54C105.449 64.2333 105.563 63.9667 105.789 63.74C106.016 63.5133 106.283 63.4 106.589 63.4H107.749C108.056 63.4 108.323 63.5133 108.549 63.74C108.776 63.9667 108.889 64.2333 108.889 64.54V72.94C108.889 73.8467 109.063 74.4933 109.409 74.88C109.756 75.2667 110.316 75.46 111.089 75.46C111.863 75.46 112.423 75.2667 112.769 74.88C113.116 74.4933 113.289 73.8467 113.289 72.94V64.54C113.289 64.2333 113.403 63.9667 113.629 63.74C113.856 63.5133 114.123 63.4 114.429 63.4H115.509C115.816 63.4 116.083 63.5133 116.309 63.74C116.536 63.9667 116.649 64.2333 116.649 64.54V72.7ZM120.917 78C120.61 78 120.344 77.8867 120.117 77.66C119.904 77.4333 119.797 77.1667 119.797 76.86V64.54C119.797 64.2333 119.904 63.9667 120.117 63.74C120.344 63.5133 120.61 63.4 120.917 63.4H122.397C122.704 63.4 122.964 63.5133 123.177 63.74C123.404 63.9667 123.517 64.2333 123.517 64.54V76.86C123.517 77.1667 123.404 77.4333 123.177 77.66C122.964 77.8867 122.704 78 122.397 78H120.917Z" fill="black"/>
</svg>
